<svg xmlns="http://www.w3.org/2000/svg" width="1920" height="329" viewBox="0 0 1920 329">
    <defs>
        <linearGradient id="a" x1="-.058%" x2="100.023%" y1="50.236%" y2="50.236%">
            <stop offset="0%" stop-color="#4FB772"/>
            <stop offset="7.59%" stop-color="#65BD82"/>
            <stop offset="24.46%" stop-color="#8FC7A2"/>
            <stop offset="40.87%" stop-color="#B0D0BB"/>
            <stop offset="56.49%" stop-color="#C8D6CD"/>
            <stop offset="71%" stop-color="#D6DAD7"/>
            <stop offset="83.29%" stop-color="#DBDBDB"/>
        </linearGradient>
        <linearGradient id="b" x1="-.058%" x2="100.046%" y1="50.235%" y2="50.235%">
            <stop offset="0%" stop-color="#4FB772"/>
            <stop offset="7.59%" stop-color="#65BD82"/>
            <stop offset="24.46%" stop-color="#8FC7A2"/>
            <stop offset="40.87%" stop-color="#B0D0BB"/>
            <stop offset="56.49%" stop-color="#C8D6CD"/>
            <stop offset="71%" stop-color="#D6DAD7"/>
            <stop offset="83.29%" stop-color="#DBDBDB"/>
        </linearGradient>
        <linearGradient id="c" x1="-.058%" x2="100.046%" y1="50.129%" y2="50.129%">
            <stop offset="0%" stop-color="#4FB772"/>
            <stop offset="7.59%" stop-color="#65BD82"/>
            <stop offset="24.46%" stop-color="#8FC7A2"/>
            <stop offset="40.87%" stop-color="#B0D0BB"/>
            <stop offset="56.49%" stop-color="#C8D6CD"/>
            <stop offset="71%" stop-color="#D6DAD7"/>
            <stop offset="83.29%" stop-color="#DBDBDB"/>
        </linearGradient>
        <linearGradient id="d" x1="-.057%" x2="100.046%" y1="50.119%" y2="50.119%">
            <stop offset="0%" stop-color="#4FB772"/>
            <stop offset="7.59%" stop-color="#65BD82"/>
            <stop offset="24.46%" stop-color="#8FC7A2"/>
            <stop offset="40.87%" stop-color="#B0D0BB"/>
            <stop offset="56.49%" stop-color="#C8D6CD"/>
            <stop offset="71%" stop-color="#D6DAD7"/>
            <stop offset="83.29%" stop-color="#DBDBDB"/>
        </linearGradient>
        <linearGradient id="e" x1="-.057%" x2="100.046%" y1="50.109%" y2="50.109%">
            <stop offset="0%" stop-color="#4FB772"/>
            <stop offset="7.59%" stop-color="#65BD82"/>
            <stop offset="24.46%" stop-color="#8FC7A2"/>
            <stop offset="40.87%" stop-color="#B0D0BB"/>
            <stop offset="56.49%" stop-color="#C8D6CD"/>
            <stop offset="71%" stop-color="#D6DAD7"/>
            <stop offset="83.29%" stop-color="#DBDBDB"/>
        </linearGradient>
        <linearGradient id="f" x1="-.056%" x2="100.046%" y1="50.096%" y2="50.096%">
            <stop offset="0%" stop-color="#4FB772"/>
            <stop offset="7.59%" stop-color="#65BD82"/>
            <stop offset="24.46%" stop-color="#8FC7A2"/>
            <stop offset="40.87%" stop-color="#B0D0BB"/>
            <stop offset="56.49%" stop-color="#C8D6CD"/>
            <stop offset="71%" stop-color="#D6DAD7"/>
            <stop offset="83.29%" stop-color="#DBDBDB"/>
        </linearGradient>
        <linearGradient id="g" x1="-.055%" x2="100.046%" y1="50.082%" y2="50.082%">
            <stop offset="0%" stop-color="#4FB772"/>
            <stop offset="7.59%" stop-color="#65BD82"/>
            <stop offset="24.46%" stop-color="#8FC7A2"/>
            <stop offset="40.87%" stop-color="#B0D0BB"/>
            <stop offset="56.49%" stop-color="#C8D6CD"/>
            <stop offset="71%" stop-color="#D6DAD7"/>
            <stop offset="83.29%" stop-color="#DBDBDB"/>
        </linearGradient>
        <linearGradient id="h" x1="-.054%" x2="100.046%" y1="50.065%" y2="50.065%">
            <stop offset="0%" stop-color="#4FB772"/>
            <stop offset="7.59%" stop-color="#65BD82"/>
            <stop offset="24.46%" stop-color="#8FC7A2"/>
            <stop offset="40.87%" stop-color="#B0D0BB"/>
            <stop offset="56.49%" stop-color="#C8D6CD"/>
            <stop offset="71%" stop-color="#D6DAD7"/>
            <stop offset="83.29%" stop-color="#DBDBDB"/>
        </linearGradient>
        <linearGradient id="i" x1="-.052%" x2="100.046%" y1="50.047%" y2="50.047%">
            <stop offset="0%" stop-color="#4FB772"/>
            <stop offset="7.59%" stop-color="#65BD82"/>
            <stop offset="24.46%" stop-color="#8FC7A2"/>
            <stop offset="40.87%" stop-color="#B0D0BB"/>
            <stop offset="56.49%" stop-color="#C8D6CD"/>
            <stop offset="71%" stop-color="#D6DAD7"/>
            <stop offset="83.29%" stop-color="#DBDBDB"/>
        </linearGradient>
        <linearGradient id="j" x1="-.05%" x2="100.046%" y1="50.028%" y2="50.028%">
            <stop offset="0%" stop-color="#4FB772"/>
            <stop offset="7.59%" stop-color="#65BD82"/>
            <stop offset="24.46%" stop-color="#8FC7A2"/>
            <stop offset="40.87%" stop-color="#B0D0BB"/>
            <stop offset="56.49%" stop-color="#C8D6CD"/>
            <stop offset="71%" stop-color="#D6DAD7"/>
            <stop offset="83.29%" stop-color="#DBDBDB"/>
        </linearGradient>
        <linearGradient id="k" x1="-.047%" x2="100.046%" y1="50.008%" y2="50.008%">
            <stop offset="0%" stop-color="#4FB772"/>
            <stop offset="7.59%" stop-color="#65BD82"/>
            <stop offset="24.46%" stop-color="#8FC7A2"/>
            <stop offset="40.87%" stop-color="#B0D0BB"/>
            <stop offset="56.49%" stop-color="#C8D6CD"/>
            <stop offset="71%" stop-color="#D6DAD7"/>
            <stop offset="83.29%" stop-color="#DBDBDB"/>
        </linearGradient>
        <linearGradient id="l" x1="-.039%" x2="100.045%" y1="49.966%" y2="49.966%">
            <stop offset="0%" stop-color="#4FB772"/>
            <stop offset="7.59%" stop-color="#65BD82"/>
            <stop offset="24.46%" stop-color="#8FC7A2"/>
            <stop offset="40.87%" stop-color="#B0D0BB"/>
            <stop offset="56.49%" stop-color="#C8D6CD"/>
            <stop offset="71%" stop-color="#D6DAD7"/>
            <stop offset="83.29%" stop-color="#DBDBDB"/>
        </linearGradient>
        <linearGradient id="m" x1="-.034%" x2="100.045%" y1="50.057%" y2="50.057%">
            <stop offset="0%" stop-color="#4FB772"/>
            <stop offset="7.59%" stop-color="#65BD82"/>
            <stop offset="24.46%" stop-color="#8FC7A2"/>
            <stop offset="40.87%" stop-color="#B0D0BB"/>
            <stop offset="56.49%" stop-color="#C8D6CD"/>
            <stop offset="71%" stop-color="#D6DAD7"/>
            <stop offset="83.29%" stop-color="#DBDBDB"/>
        </linearGradient>
        <linearGradient id="n" x1="-.035%" x2="100.045%" y1="50.057%" y2="50.057%">
            <stop offset="0%" stop-color="#4FB772"/>
            <stop offset="7.59%" stop-color="#65BD82"/>
            <stop offset="24.46%" stop-color="#8FC7A2"/>
            <stop offset="40.87%" stop-color="#B0D0BB"/>
            <stop offset="56.49%" stop-color="#C8D6CD"/>
            <stop offset="71%" stop-color="#D6DAD7"/>
            <stop offset="83.29%" stop-color="#DBDBDB"/>
        </linearGradient>
        <linearGradient id="o" x1="-.031%" x2="100.045%" y1="50.039%" y2="50.039%">
            <stop offset="0%" stop-color="#4FB772"/>
            <stop offset="7.59%" stop-color="#65BD82"/>
            <stop offset="24.46%" stop-color="#8FC7A2"/>
            <stop offset="40.87%" stop-color="#B0D0BB"/>
            <stop offset="56.49%" stop-color="#C8D6CD"/>
            <stop offset="71%" stop-color="#D6DAD7"/>
            <stop offset="83.29%" stop-color="#DBDBDB"/>
        </linearGradient>
        <linearGradient id="p" x1="-.026%" x2="100.045%" y1="50.026%" y2="50.026%">
            <stop offset="0%" stop-color="#4FB772"/>
            <stop offset="7.59%" stop-color="#65BD82"/>
            <stop offset="24.46%" stop-color="#8FC7A2"/>
            <stop offset="40.87%" stop-color="#B0D0BB"/>
            <stop offset="56.49%" stop-color="#C8D6CD"/>
            <stop offset="71%" stop-color="#D6DAD7"/>
            <stop offset="83.29%" stop-color="#DBDBDB"/>
        </linearGradient>
        <linearGradient id="q" x1="-.021%" x2="100.045%" y1="50.016%" y2="50.016%">
            <stop offset="0%" stop-color="#4FB772"/>
            <stop offset="7.59%" stop-color="#65BD82"/>
            <stop offset="24.46%" stop-color="#8FC7A2"/>
            <stop offset="40.87%" stop-color="#B0D0BB"/>
            <stop offset="56.49%" stop-color="#C8D6CD"/>
            <stop offset="71%" stop-color="#D6DAD7"/>
            <stop offset="83.29%" stop-color="#DBDBDB"/>
        </linearGradient>
        <linearGradient id="r" x1="-.017%" x2="100.045%" y1="50.009%" y2="50.009%">
            <stop offset="0%" stop-color="#4FB772"/>
            <stop offset="7.59%" stop-color="#65BD82"/>
            <stop offset="24.46%" stop-color="#8FC7A2"/>
            <stop offset="40.87%" stop-color="#B0D0BB"/>
            <stop offset="56.49%" stop-color="#C8D6CD"/>
            <stop offset="71%" stop-color="#D6DAD7"/>
            <stop offset="83.29%" stop-color="#DBDBDB"/>
        </linearGradient>
        <linearGradient id="s" x1="-.012%" x2="100.045%" y1="50.005%" y2="50.005%">
            <stop offset="0%" stop-color="#4FB772"/>
            <stop offset="7.59%" stop-color="#65BD82"/>
            <stop offset="24.46%" stop-color="#8FC7A2"/>
            <stop offset="40.87%" stop-color="#B0D0BB"/>
            <stop offset="56.49%" stop-color="#C8D6CD"/>
            <stop offset="71%" stop-color="#D6DAD7"/>
            <stop offset="83.29%" stop-color="#DBDBDB"/>
        </linearGradient>
        <linearGradient id="t" x1="-.008%" x2="100.045%" y1="50.002%" y2="50.002%">
            <stop offset="0%" stop-color="#4FB772"/>
            <stop offset="7.59%" stop-color="#65BD82"/>
            <stop offset="24.46%" stop-color="#8FC7A2"/>
            <stop offset="40.87%" stop-color="#B0D0BB"/>
            <stop offset="56.49%" stop-color="#C8D6CD"/>
            <stop offset="71%" stop-color="#D6DAD7"/>
            <stop offset="83.29%" stop-color="#DBDBDB"/>
        </linearGradient>
        <linearGradient id="u" x1="-.004%" x2="100.045%" y1="50.001%" y2="50.001%">
            <stop offset="0%" stop-color="#4FB772"/>
            <stop offset="7.59%" stop-color="#65BD82"/>
            <stop offset="24.46%" stop-color="#8FC7A2"/>
            <stop offset="40.87%" stop-color="#B0D0BB"/>
            <stop offset="56.49%" stop-color="#C8D6CD"/>
            <stop offset="71%" stop-color="#D6DAD7"/>
            <stop offset="83.29%" stop-color="#DBDBDB"/>
        </linearGradient>
        <linearGradient id="v" x1="-.001%" x2="100.045%" y1="50%" y2="50%">
            <stop offset="0%" stop-color="#4FB772"/>
            <stop offset="7.59%" stop-color="#65BD82"/>
            <stop offset="24.46%" stop-color="#8FC7A2"/>
            <stop offset="40.87%" stop-color="#B0D0BB"/>
            <stop offset="56.49%" stop-color="#C8D6CD"/>
            <stop offset="71%" stop-color="#D6DAD7"/>
            <stop offset="83.29%" stop-color="#DBDBDB"/>
        </linearGradient>
    </defs>
    <g fill="none" fill-rule="evenodd" opacity=".312">
        <path stroke="url(#a)" d="M1991.906 285.947S1136.425-79.875 582.48 197.217C28.535 474.306.077 63.47.077 63.47" transform="translate(-80)"/>
        <path stroke="url(#b)" d="M2.8 60.452s39.374 388.995 587.793 137.299a715.88 715.88 0 0 1 70.724-28.191c298.14-100.083 659.028-75.893 917.745-16.027 232.015 53.687 407.346 114.982 417.069 127.25" transform="translate(-80)"/>
        <path stroke="url(#c)" d="M5.523 57.433S56.048 424.68 598.706 198.286a626.1 626.1 0 0 1 70.666-25.002c305.123-86.243 670.296-77.57 916.077-20.697 220.414 51.003 395.462 98.496 414.905 123.032" transform="translate(-80)"/>
        <path stroke="url(#d)" d="M8.246 54.415S70.163 400.037 606.82 198.82a561.818 561.818 0 0 1 70.608-21.811C989.9 104.797 1358.99 97.76 1591.835 151.64c208.814 48.319 383.579 82.011 412.743 118.816" transform="translate(-80)"/>
        <path stroke="url(#e)" d="M10.97 51.396s73.55 324.157 603.963 147.96a515.203 515.203 0 0 1 70.55-18.623c320.151-57.93 692.83-80.925 912.74-30.038 197.213 45.634 371.693 65.525 410.58 114.596" transform="translate(-80)"/>
        <path stroke="url(#f)" d="M13.692 48.377S99.116 351.263 623.046 199.89a481.682 481.682 0 0 1 70.492-15.432c328.107-43.35 704.098-82.602 911.072-34.71 185.612 42.95 359.808 49.04 408.416 110.38" transform="translate(-80)"/>
        <path stroke="url(#g)" d="M16.415 45.358S113.94 327.204 631.16 200.425a458.35 458.35 0 0 1 70.435-12.243c336.285-28.423 715.365-84.28 909.403-39.38 174.011 40.266 347.924 32.553 406.254 106.162" transform="translate(-80)"/>
        <path stroke="url(#h)" d="M19.138 42.34S128.974 303.41 639.272 200.96c22.878-4.594 46.43-10.51 70.377-9.053 344.24 20.94 726.634-85.957 907.735-44.05 162.41 37.58 336.04 16.066 404.09 101.943" transform="translate(-80)"/>
        <path stroke="url(#i)" d="M21.861 39.32s122.335 240.598 625.525 162.174c22.884-3.567 46.565-8.49 70.318-5.863 350.935 38.817 737.9-87.634 906.067-48.72 150.81 34.896 324.155-.42 401.928 97.725" transform="translate(-80)"/>
        <path stroke="url(#j)" d="M24.584 36.302S159.57 256.753 655.499 202.03c22.898-2.527 46.7-6.38 70.261-2.674 357.63 56.274 749.168-89.31 904.398-53.391 139.21 32.212 312.27-16.904 399.765 93.508" transform="translate(-80)"/>
        <path stroke="url(#k)" d="M27.307 33.283s147.75 200.658 636.305 169.28a441.248 441.248 0 0 1 70.203.517c370.028 35.267 760.435-90.988 902.73-58.062 127.608 29.528 300.386-33.39 397.602 89.29" transform="translate(-80)"/>
        <path stroke="url(#l)" d="M30.03 30.264s161.152 148.043 641.697 172.834c22.913 1.182 46.474.439 70.145 3.706 378.427 52.233 771.703-92.665 901.061-62.732 116.007 26.843 288.502-49.876 395.439 85.072" transform="translate(-80)"/>
        <path stroke="url(#m)" d="M32.753 27.245s175.533 129.702 647.085 176.387c22.862 2.263 46.482 2.647 70.088 6.896 386.708 69.6 782.971-94.343 899.393-67.403 104.407 24.158 276.617-66.36 393.277 80.854" transform="translate(-80)"/>
        <path stroke="url(#n)" d="M35.476 24.227s186.25 143.502 652.476 179.94a506.472 506.472 0 0 1 70.03 10.086c394.829 87.35 794.237-96.02 897.724-72.073 92.806 21.474 264.732-82.847 391.114 76.637" transform="translate(-80)"/>
        <path stroke="url(#o)" d="M38.199 21.208s198.974 125.183 657.866 183.494a549.278 549.278 0 0 1 69.972 13.277c402.758 105.453 805.504-97.698 896.056-76.746 81.205 18.791 252.848-99.332 388.95 72.42" transform="translate(-80)"/>
        <path stroke="url(#p)" d="M40.922 18.19s211.554 107.2 663.256 187.047a608 608 0 0 1 69.916 16.465c410.466 123.882 816.772-99.374 894.388-81.414 69.604 16.106 240.963-115.819 386.788 68.201" transform="translate(-80)"/>
        <path stroke="url(#q)" d="M43.645 15.17s223.943 89.522 668.647 190.601a689.148 689.148 0 0 1 69.856 19.655c417.937 142.6 828.04-101.05 892.72-86.085 58.003 13.422 229.078-132.304 384.624 63.984" transform="translate(-80)"/>
        <path stroke="url(#r)" d="M46.368 12.151s236.098 72.11 674.037 194.155c22.999 6.41 46.346 13.933 69.799 22.845 425.155 161.571 839.308-102.729 891.05-90.756 46.403 10.738 217.195-148.79 382.462 59.766" transform="translate(-80)"/>
        <path stroke="url(#s)" d="M49.09 9.133S297.073 64.048 728.519 206.84c22.973 7.603 46.28 16.22 69.741 26.034 432.116 180.765 850.575-104.406 889.382-95.426 34.802 8.053 205.31-165.276 380.3 55.548" transform="translate(-80)"/>
        <path stroke="url(#t)" d="M51.814 6.114s259.57 37.893 684.817 201.262c22.931 8.809 46.159 18.55 69.684 29.224 438.817 200.143 861.841-106.084 887.713-100.097 23.202 5.369 193.426-181.761 378.137 51.33" transform="translate(-80)"/>
        <path stroke="url(#u)" d="M54.537 3.095S325.383 24.09 744.745 207.91c22.873 10.026 46.081 20.83 69.626 32.414 445.262 219.676 873.108-107.76 886.044-104.767 11.601 2.684 181.542-198.247 375.974 47.113" transform="translate(-80)"/>
        <path stroke="url(#v)" d="M57.26.076s313.708 4.64 765.165 243.973c451.458 239.332 884.377-109.439 884.377-109.439s169.657-214.733 373.81 42.895" transform="translate(-80)"/>
    </g>
</svg>
